<svg xmlns="http://www.w3.org/2000/svg" width="177" height="37" viewBox="0 0 177 37">
  <g fill="#FFF" fill-rule="evenodd">
    <path d="M13.709 36.526C11.186 36.526 8.709 35.816 6.549 34.473L5.23 33.654 5.23 36.318 5.15143483e-14 36.318 5.15143483e-14-8.17124146e-14 5.23-8.17124146e-14 5.23 12.248 6.549 11.428C8.709 10.085 11.186 9.375 13.709 9.375 21.195 9.375 27.284 15.465 27.284 22.95 27.284 30.436 21.195 36.526 13.709 36.526M13.709 14.605C13.351 14.605 12.985 14.628 12.627 14.674 8.928 15.144 5.902 18.169 5.434 21.867 5.13 24.26 5.863 26.663 7.446 28.461 9.033 30.262 11.316 31.296 13.709 31.296 14.068 31.296 14.434 31.273 14.793 31.227 18.49 30.757 21.516 27.732 21.986 24.034 22.289 21.641 21.556 19.237 19.973 17.439 18.386 15.638 16.103 14.605 13.709 14.605M54.8017 25.2246C54.8527 24.6186 54.9037 24.0636 54.9037 23.5086 54.9037 15.8396 50.6157 9.1796 42.1387 9.1796 34.5197 9.1796 29.1217 15.4356 29.1217 23.0556L29.1217 23.1556C29.1217 31.3796 35.0757 36.9796 42.7937 36.9796 47.6877 36.9796 51.1697 35.0116 53.6917 31.9846L50.1097 28.8066C47.9917 30.8746 45.8717 31.9846 42.8947 31.9846 38.9597 31.9846 35.8817 29.5626 35.2257 25.2246L54.8017 25.2246zM48.8487 21.1876L35.1757 21.1876C35.7307 17.0506 38.3547 14.1746 42.0877 14.1746 46.1237 14.1746 48.4457 17.2516 48.8487 21.1876L48.8487 21.1876z"/>
    <polygon points="57.344 36.375 63.45 36.375 63.45 .001 57.344 .001"/>
    <polygon points="66.382 36.375 72.486 36.375 72.486 .001 66.382 .001"/>
    <polygon points="77.052 36.342 86.762 22.953 77.052 9.805"/>
    <polygon points="89.459 9.734 82.799 9.734 92.184 22.802 82.445 36.373 88.955 36.373 95.463 26.888 102.022 36.373 108.682 36.373 98.894 22.751 108.277 9.734 101.77 9.734 95.613 18.664"/>
    <path d="M120.8545 36.9796C126.0505 36.9796 129.1275 34.9106 131.7515 31.9846L128.0695 28.3516C126.1515 30.3196 124.0325 31.6316 121.1575 31.6316 116.4635 31.6316 113.1855 27.8476 113.1855 23.1046L113.1855 23.0046C113.1855 18.3626 116.4635 14.5276 120.9045 14.5276 123.9315 14.5276 125.8995 15.8896 127.7655 17.8576L131.5995 13.7706C129.0785 11.0466 125.9505 9.1796 120.9555 9.1796 112.9325 9.1796 107.0805 15.5366 107.0805 23.1046L107.0805 23.2056C107.0805 30.7736 112.9325 36.9796 120.8545 36.9796M146.0946 36.9796C150.9876 36.9796 154.4696 35.0116 156.9916 31.9846L153.4096 28.8056C151.2896 30.8746 149.1706 31.9846 146.1946 31.9846 142.2596 31.9846 139.1816 29.5626 138.5266 25.2236L158.1016 25.2236C158.1516 24.6186 158.2026 24.0636 158.2026 23.5086 158.2026 15.8396 153.9136 9.1796 145.4386 9.1796 137.8196 9.1796 132.4196 15.4356 132.4196 23.0546L132.4196 23.1556C132.4196 31.3796 138.3736 36.9796 146.0946 36.9796L146.0946 36.9796zM138.4756 21.1876C139.0306 17.0506 141.6546 14.1746 145.3876 14.1746 149.4236 14.1746 151.7446 17.2526 152.1486 21.1876L138.4756 21.1876z"/>
    <polygon points="160.643 36.374 166.749 36.374 166.749 .001 160.643 .001"/>
    <path d="M170.0173,33.4448 C170.0173,32.9628 170.1103,32.5108 170.2953,32.0878 C170.4793,31.6658 170.7293,31.2958 171.0463,30.9798 C171.3623,30.6638 171.7313,30.4138 172.1533,30.2288 C172.5763,30.0448 173.0283,29.9518 173.5103,29.9518 C173.9923,29.9518 174.4443,30.0448 174.8673,30.2288 C175.2893,30.4138 175.6583,30.6638 175.9743,30.9798 C176.2903,31.2958 176.5413,31.6658 176.7253,32.0878 C176.9103,32.5108 177.0023,32.9628 177.0023,33.4448 C177.0023,33.9268 176.9103,34.3788 176.7253,34.8008 C176.5413,35.2228 176.2903,35.5928 175.9743,35.9088 C175.6583,36.2248 175.2893,36.4748 174.8673,36.6598 C174.4443,36.8438 173.9923,36.9368 173.5103,36.9368 C173.0283,36.9368 172.5763,36.8438 172.1533,36.6598 C171.7313,36.4748 171.3623,36.2248 171.0463,35.9088 C170.7293,35.5928 170.4793,35.2228 170.2953,34.8008 C170.1103,34.3788 170.0173,33.9268 170.0173,33.4448 L170.0173,33.4448 Z M170.9753,33.4448 C170.9753,33.8068 171.0413,34.1498 171.1733,34.4718 C171.3043,34.7948 171.4853,35.0748 171.7173,35.3128 C171.9483,35.5508 172.2183,35.7398 172.5243,35.8808 C172.8313,36.0208 173.1603,36.0918 173.5103,36.0918 C173.8603,36.0918 174.1893,36.0208 174.4963,35.8808 C174.8033,35.7398 175.0713,35.5508 175.3033,35.3128 C175.5353,35.0748 175.7163,34.7948 175.8473,34.4718 C175.9793,34.1498 176.0453,33.8068 176.0453,33.4448 C176.0453,33.0818 175.9793,32.7388 175.8473,32.4168 C175.7163,32.0948 175.5353,31.8138 175.3033,31.5758 C175.0713,31.3388 174.8033,31.1488 174.4963,31.0088 C174.1893,30.8678 173.8603,30.7968 173.5103,30.7968 C173.1603,30.7968 172.8313,30.8678 172.5243,31.0088 C172.2183,31.1488 171.9483,31.3388 171.7173,31.5758 C171.4853,31.8138 171.3043,32.0948 171.1733,32.4168 C171.0413,32.7388 170.9753,33.0818 170.9753,33.4448 L170.9753,33.4448 Z M172.1683,31.5758 L173.4633,31.5758 C173.5633,31.5758 173.7013,31.5828 173.8763,31.5948 C174.0523,31.6078 174.2233,31.6518 174.3923,31.7268 C174.5613,31.8018 174.7093,31.9188 174.8343,32.0778 C174.9593,32.2378 175.0213,32.4648 175.0213,32.7588 C175.0213,32.9468 174.9963,33.1018 174.9463,33.2238 C174.8963,33.3458 174.8323,33.4458 174.7543,33.5238 C174.6763,33.6028 174.5853,33.6618 174.4813,33.7018 C174.3793,33.7428 174.2733,33.7698 174.1673,33.7828 L175.1063,35.2378 L174.1203,35.2378 L173.2853,33.8288 L173.1253,33.8288 L173.1253,35.2378 L172.1683,35.2378 L172.1683,31.5758 Z M173.1163,33.0968 L173.5013,33.0968 C173.5563,33.0968 173.6183,33.0938 173.6833,33.0878 C173.7503,33.0818 173.8103,33.0658 173.8673,33.0408 C173.9233,33.0158 173.9703,32.9768 174.0083,32.9238 C174.0453,32.8698 174.0643,32.7968 174.0643,32.7028 C174.0643,32.6088 174.0453,32.5348 174.0083,32.4818 C173.9703,32.4288 173.9233,32.3898 173.8673,32.3648 C173.8103,32.3398 173.7503,32.3248 173.6833,32.3178 C173.6183,32.3118 173.5563,32.3088 173.5013,32.3088 L173.1163,32.3088 L173.1163,33.0968 Z"/>
  </g>
</svg>
